<svg width="93" height="92" viewBox="0 0 93 92" fill="none" xmlns="http://www.w3.org/2000/svg">
<path d="M1.53516 44.1296C4.17841 43.6518 6.90111 43.4023 9.682 43.4023C20.7379 43.4023 30.8728 47.3455 38.7571 53.9023" stroke="#3E7DFA" stroke-width="2" stroke-linecap="round" stroke-linejoin="round"/>
<path d="M33.0351 71.4023H8.53512C6.67865 71.4023 4.89813 70.6645 3.58541 69.352C2.27266 68.0395 1.53516 66.2588 1.53516 64.4024V8.40237C1.53516 6.54583 2.27266 4.76538 3.58541 3.45259C4.89813 2.13984 6.67865 1.40234 8.53512 1.40234H64.5351C66.3917 1.40234 68.172 2.13984 69.4852 3.45259C70.7977 4.76538 71.5355 6.54583 71.5355 8.40237V32.9024" stroke="#3E7DFA" stroke-width="2" stroke-linecap="round" stroke-linejoin="round"/>
<path d="M41.7852 36.4023C46.6177 36.4023 50.5352 32.4848 50.5352 27.6523C50.5352 22.8198 46.6177 18.9023 41.7852 18.9023C36.9527 18.9023 33.0352 22.8198 33.0352 27.6523C33.0352 32.4848 36.9527 36.4023 41.7852 36.4023Z" stroke="#3E7DFA" stroke-width="2" stroke-linecap="round" stroke-linejoin="round"/>
<path d="M48.8775 70.9403C46.421 70.5126 46.421 66.9862 48.8775 66.5588C57.7771 65.0106 64.8554 58.232 66.787 49.4078L66.9351 48.7314C67.4666 46.3036 70.9237 46.2884 71.476 48.7115L71.6559 49.4998C73.6593 58.2824 80.7391 65.0036 89.6144 66.5476C92.0833 66.9772 92.0833 70.5217 89.6144 70.9515C80.7391 72.495 73.6593 79.2164 71.6559 87.9993L71.476 88.7875C70.9237 91.2102 67.4666 91.1955 66.9351 88.7672L66.787 88.091C64.8554 79.2668 57.7771 72.488 48.8775 70.9403Z" stroke="#3E7DFA" stroke-width="2" stroke-linecap="round" stroke-linejoin="round"/>
</svg>
