<svg width="15" height="14" viewBox="0 0 15 14" fill="none" xmlns="http://www.w3.org/2000/svg">
<path d="M2.75 12.0418V12.8335C2.75 13.0578 2.67413 13.2458 2.5224 13.3976C2.37066 13.5493 2.18264 13.6252 1.95833 13.6252H1.16667C0.942361 13.6252 0.75434 13.5493 0.602604 13.3976C0.450868 13.2458 0.375 13.0578 0.375 12.8335V6.50016L2.0375 1.75016C2.11667 1.51266 2.25851 1.32134 2.46302 1.1762C2.66753 1.03107 2.89514 0.958496 3.14583 0.958496H11.8542C12.1049 0.958496 12.3325 1.03107 12.537 1.1762C12.7415 1.32134 12.8833 1.51266 12.9625 1.75016L14.625 6.50016V12.8335C14.625 13.0578 14.5491 13.2458 14.3974 13.3976C14.2457 13.5493 14.0576 13.6252 13.8333 13.6252H13.0417C12.8174 13.6252 12.6293 13.5493 12.4776 13.3976C12.3259 13.2458 12.25 13.0578 12.25 12.8335V12.0418H2.75ZM2.59167 4.91683H12.4083L11.5771 2.54183H3.42292L2.59167 4.91683ZM3.9375 9.66683C4.26736 9.66683 4.54774 9.55138 4.77865 9.32048C5.00955 9.08957 5.125 8.80919 5.125 8.47933C5.125 8.14947 5.00955 7.86909 4.77865 7.63818C4.54774 7.40728 4.26736 7.29183 3.9375 7.29183C3.60764 7.29183 3.32726 7.40728 3.09635 7.63818C2.86545 7.86909 2.75 8.14947 2.75 8.47933C2.75 8.80919 2.86545 9.08957 3.09635 9.32048C3.32726 9.55138 3.60764 9.66683 3.9375 9.66683ZM11.0625 9.66683C11.3924 9.66683 11.6727 9.55138 11.9036 9.32048C12.1345 9.08957 12.25 8.80919 12.25 8.47933C12.25 8.14947 12.1345 7.86909 11.9036 7.63818C11.6727 7.40728 11.3924 7.29183 11.0625 7.29183C10.7326 7.29183 10.4523 7.40728 10.2214 7.63818C9.99045 7.86909 9.875 8.14947 9.875 8.47933C9.875 8.80919 9.99045 9.08957 10.2214 9.32048C10.4523 9.55138 10.7326 9.66683 11.0625 9.66683ZM1.95833 10.4585H13.0417V6.50016H1.95833V10.4585Z" fill="#000"/>
</svg>