<svg width="14" height="14" viewBox="0 0 14 14" fill="none" xmlns="http://www.w3.org/2000/svg">
<g clip-path="url(#clip0_2652_2734)">
<path d="M7 13.5C10.5899 13.5 13.5 10.5899 13.5 7C13.5 3.41015 10.5899 0.5 7 0.5C3.41015 0.5 0.5 3.41015 0.5 7C0.5 10.5899 3.41015 13.5 7 13.5Z" stroke="black" stroke-linecap="round" stroke-linejoin="round"/>
<path d="M5.25 5.24951C5.25 4.90339 5.35273 4.56505 5.5452 4.27726C5.73766 3.98948 6.01123 3.76518 6.33129 3.63272C6.65135 3.50027 7.00354 3.46562 7.34331 3.53314C7.68309 3.60066 7.99519 3.76733 8.24016 4.01208C8.48512 4.25682 8.65194 4.56864 8.71953 4.9081C8.78711 5.24757 8.75243 5.59943 8.61985 5.9192C8.48728 6.23897 8.26277 6.51228 7.97472 6.70457C7.68668 6.89686 7.34802 6.9995 7.00159 6.9995V8.16616" stroke="black" stroke-linecap="round" stroke-linejoin="round"/>
<path d="M7 10.4585C6.86193 10.4585 6.75 10.3466 6.75 10.2085C6.75 10.0704 6.86193 9.9585 7 9.9585" stroke="black" stroke-linecap="round" stroke-linejoin="round"/>
<path d="M7 10.4585C7.13807 10.4585 7.25 10.3466 7.25 10.2085C7.25 10.0704 7.13807 9.9585 7 9.9585" stroke="black" stroke-linecap="round" stroke-linejoin="round"/>
</g>
<defs>
<clipPath id="clip0_2652_2734">
<rect width="14" height="14" fill="white"/>
</clipPath>
</defs>
</svg>