<svg width="57" height="56" viewBox="0 0 57 56" fill="none" xmlns="http://www.w3.org/2000/svg">
<rect x="4.33203" y="4" width="48" height="48" rx="24" fill="#2C36A9" fill-opacity="0.3"/>
<rect x="4.33203" y="4" width="48" height="48" rx="24" stroke="#2C36A9" stroke-opacity="0.1" stroke-width="8"/>
<path d="M19.6426 34.7498V21.2499C19.6426 20.9089 19.778 20.5819 20.0192 20.3407C20.2603 20.0996 20.5873 19.9642 20.9283 19.9642H25.6726C25.9663 19.9556 26.2541 20.0479 26.488 20.2257C26.7219 20.4035 26.8879 20.656 26.9583 20.9413L27.3569 22.5356H35.0711C35.4121 22.5356 35.7392 22.6711 35.9803 22.9122C36.2213 23.1533 36.3569 23.4803 36.3569 23.8213V34.7498C36.3569 35.0909 36.2213 35.4179 35.9803 35.659C35.7392 35.9002 35.4121 36.0356 35.0711 36.0356H20.9283C20.5873 36.0356 20.2603 35.9002 20.0192 35.659C19.778 35.4179 19.6426 35.0909 19.6426 34.7498Z" stroke="#2C36A9" stroke-width="2" stroke-linecap="round" stroke-linejoin="round"/>
<path d="M24.7852 30.5714L26.7137 31.8571L30.5709 26.7142" stroke="#2C36A9" stroke-width="2" stroke-linecap="round" stroke-linejoin="round"/>
</svg>
