<svg width="15" height="15" viewBox="0 0 15 15" fill="none" xmlns="http://www.w3.org/2000/svg">
<g clip-path="url(#clip0_2886_3174)">
<path d="M7.5 13.5715C11.0899 13.5715 14 10.6614 14 7.07153C14 3.48168 11.0899 0.571533 7.5 0.571533C3.91015 0.571533 1 3.48168 1 7.07153C1 10.6614 3.91015 13.5715 7.5 13.5715Z" stroke="#999999" stroke-linecap="round" stroke-linejoin="round"/>
<path d="M6 10.0715H9" stroke="#999999" stroke-linecap="round" stroke-linejoin="round"/>
<path d="M7.5 10.0715V6.57153H6.5" stroke="#999999" stroke-linecap="round" stroke-linejoin="round"/>
<path d="M7.5 4.32153C7.36193 4.32153 7.25 4.2096 7.25 4.07153C7.25 3.93346 7.36193 3.82153 7.5 3.82153" stroke="#999999" stroke-linecap="round" stroke-linejoin="round"/>
<path d="M7.5 4.32153C7.63807 4.32153 7.75 4.2096 7.75 4.07153C7.75 3.93346 7.63807 3.82153 7.5 3.82153" stroke="#999999" stroke-linecap="round" stroke-linejoin="round"/>
</g>
<defs>
<clipPath id="clip0_2886_3174">
<rect width="14" height="14" fill="white" transform="translate(0.5 0.0715332)"/>
</clipPath>
</defs>
</svg>
