<svg width="14" height="14" viewBox="0 0 14 14" fill="none" xmlns="http://www.w3.org/2000/svg">
<path d="M6.50917 13.0701C5.99077 13.4039 5.37374 13.5502 4.76065 13.4847C4.14757 13.4192 3.57536 13.1459 3.13917 12.7101L2.75917 12.3301C2.59063 12.1597 2.49609 11.9298 2.49609 11.6901C2.49609 11.4505 2.59063 11.2205 2.75917 11.0501L4.35917 9.46015C4.52784 9.29222 4.75616 9.19794 4.99417 9.19794C5.23218 9.19794 5.4605 9.29222 5.62917 9.46015C5.79954 9.6287 6.02952 9.72323 6.26917 9.72323C6.50882 9.72323 6.7388 9.6287 6.90917 9.46015L9.45917 6.91015C9.62772 6.73978 9.72226 6.5098 9.72226 6.27015C9.72226 6.0305 9.62772 5.80052 9.45917 5.63015C9.29124 5.46148 9.19696 5.23316 9.19696 4.99515C9.19696 4.75714 9.29124 4.52882 9.45917 4.36015L10.9991 2.76015C11.1695 2.5916 11.3995 2.49707 11.6391 2.49707C11.8788 2.49707 12.1088 2.5916 12.2791 2.76015L12.6591 3.14015C13.1027 3.57019 13.3854 4.13935 13.46 4.75265C13.5347 5.36595 13.3967 5.9863 13.0691 6.51015C11.3254 9.09893 9.09795 11.3264 6.50917 13.0701Z" stroke="black" stroke-linecap="round" stroke-linejoin="round"/>
<path d="M7 0.5C6.14641 0.5 5.30117 0.668127 4.51256 0.994783C3.72394 1.32144 3.00739 1.80023 2.40381 2.40381C1.80022 3.00739 1.32144 3.72394 0.994783 4.51256C0.668128 5.30117 0.5 6.14641 0.5 7" stroke="black" stroke-linecap="round" stroke-linejoin="round"/>
<path d="M7 3C5.93913 3 4.92172 3.42143 4.17157 4.17157C3.42143 4.92172 3 5.93913 3 7" stroke="black" stroke-linecap="round" stroke-linejoin="round"/>
</svg>