<svg width="18" height="18" viewBox="0 0 18 18" fill="none" xmlns="http://www.w3.org/2000/svg">
<g clip-path="url(#clip0_3411_3261)">
<path d="M5.78516 14.1431H7.07087" stroke="white" stroke-width="1.5" stroke-linecap="round" stroke-linejoin="round"/>
<path d="M6.42829 0.643066H1.92829C1.21821 0.643066 0.642578 1.2187 0.642578 1.92878V16.0716C0.642578 16.7817 1.21821 17.3574 1.92829 17.3574H10.9283C11.6384 17.3574 12.214 16.7817 12.214 16.0716V11.5716" stroke="white" stroke-width="1.5" stroke-linecap="round" stroke-linejoin="round"/>
<path d="M17.3574 3.85735C17.3574 3.51635 17.2219 3.18933 16.9808 2.94821C16.7398 2.7071 16.4127 2.57164 16.0717 2.57164H15.4289L14.1431 0.643066H11.5717L10.286 2.57164H9.64314C9.30214 2.57164 8.97512 2.7071 8.73399 2.94821C8.49288 3.18933 8.35742 3.51635 8.35742 3.85735V7.07164C8.35742 7.41263 8.49288 7.73966 8.73399 7.98078C8.97512 8.22189 9.30214 8.35735 9.64314 8.35735H16.0717C16.4127 8.35735 16.7398 8.22189 16.9808 7.98078C17.2219 7.73966 17.3574 7.41263 17.3574 7.07164V3.85735Z" stroke="white" stroke-width="1.5" stroke-linecap="round" stroke-linejoin="round"/>
<path d="M12.8571 5.62542C12.5909 5.62542 12.375 5.40956 12.375 5.14328C12.375 4.87699 12.5909 4.66113 12.8571 4.66113" stroke="white" stroke-width="1.5" stroke-linecap="round" stroke-linejoin="round"/>
<path d="M12.8574 5.62542C13.1237 5.62542 13.3396 5.40956 13.3396 5.14328C13.3396 4.87699 13.1237 4.66113 12.8574 4.66113" stroke="white" stroke-width="1.5" stroke-linecap="round" stroke-linejoin="round"/>
</g>
<defs>
<clipPath id="clip0_3411_3261">
<rect width="18" height="18" fill="white"/>
</clipPath>
</defs>
</svg>
