<svg width="14" height="15" viewBox="0 0 14 15" fill="none" xmlns="http://www.w3.org/2000/svg">
<path d="M1 4.07153H13" stroke="white" stroke-linecap="round" stroke-linejoin="round"/>
<path d="M2.5 4.07153H11.5V13.0715C11.5 13.3367 11.3946 13.5911 11.2071 13.7786C11.0196 13.9661 10.7652 14.0715 10.5 14.0715H3.5C3.23478 14.0715 2.98043 13.9661 2.79289 13.7786C2.60536 13.5911 2.5 13.3367 2.5 13.0715V4.07153Z" stroke="white" stroke-linecap="round" stroke-linejoin="round"/>
<path d="M4.5 4.07153V3.57153C4.5 2.90849 4.76339 2.2726 5.23223 1.80376C5.70107 1.33493 6.33696 1.07153 7 1.07153C7.66304 1.07153 8.29893 1.33493 8.76777 1.80376C9.23661 2.2726 9.5 2.90849 9.5 3.57153V4.07153" stroke="white" stroke-linecap="round" stroke-linejoin="round"/>
<path d="M5.5 7.073V11.0745" stroke="white" stroke-linecap="round" stroke-linejoin="round"/>
<path d="M8.5 7.073V11.0745" stroke="white" stroke-linecap="round" stroke-linejoin="round"/>
</svg>
