<svg width="57" height="56" viewBox="0 0 57 56" fill="none" xmlns="http://www.w3.org/2000/svg">
<rect x="4.66602" y="4" width="48" height="48" rx="24" fill="#2C36A9" fill-opacity="0.3"/>
<rect x="4.66602" y="4" width="48" height="48" rx="24" stroke="#2C36A9" stroke-opacity="0.1" stroke-width="8"/>
<path d="M28.9994 29.2856C30.7746 29.2856 32.2137 27.8465 32.2137 26.0713C32.2137 24.2961 30.7746 22.8571 28.9994 22.8571C27.2242 22.8571 25.7852 24.2961 25.7852 26.0713C25.7852 27.8465 27.2242 29.2856 28.9994 29.2856Z" stroke="#2C36A9" stroke-width="2" stroke-linecap="round" stroke-linejoin="round"/>
<path d="M23.5098 34.2999C24.0835 33.3581 24.8899 32.5798 25.8513 32.0398C26.8128 31.4996 27.897 31.2159 28.9998 31.2159C30.1025 31.2159 31.1868 31.4996 32.1482 32.0398C33.1097 32.5798 33.916 33.3581 34.4898 34.2999" stroke="#2C36A9" stroke-width="2" stroke-linecap="round" stroke-linejoin="round"/>
<path d="M28.9997 36.3571C33.6153 36.3571 37.3569 32.6156 37.3569 28C37.3569 23.3844 33.6153 19.6428 28.9997 19.6428C24.3842 19.6428 20.6426 23.3844 20.6426 28C20.6426 32.6156 24.3842 36.3571 28.9997 36.3571Z" stroke="#2C36A9" stroke-width="2" stroke-linecap="round" stroke-linejoin="round"/>
</svg>
