<svg width="32" height="33" viewBox="0 0 32 33" fill="none" xmlns="http://www.w3.org/2000/svg">
<path d="M18.0349 2.89977C17.8431 2.52537 17.5517 2.21116 17.1927 1.99175C16.8338 1.77235 16.4213 1.65625 16.0006 1.65625C15.5799 1.65625 15.1674 1.77235 14.8085 1.99175C14.4496 2.21116 14.1581 2.52537 13.9663 2.89977L1.3949 28.0426C1.21957 28.3905 1.13609 28.7775 1.15239 29.167C1.1687 29.5562 1.28425 29.9347 1.48808 30.2669C1.6919 30.599 1.97723 30.8735 2.31697 31.0641C2.6567 31.255 3.03955 31.3558 3.4292 31.3569H28.572C28.9617 31.3558 29.3446 31.255 29.6842 31.0641C30.0241 30.8735 30.3094 30.599 30.5132 30.2669C30.7169 29.9347 30.8326 29.5562 30.8488 29.167C30.8652 28.7775 30.7816 28.3905 30.6063 28.0426L18.0349 2.89977Z" stroke="#3574F1" stroke-width="2" stroke-linecap="round" stroke-linejoin="round"/>
<path d="M16 11.9287V19.3573" stroke="#3574F1" stroke-width="2" stroke-linecap="round" stroke-linejoin="round"/>
<path d="M16.0011 25.6429C15.6855 25.6429 15.4297 25.3871 15.4297 25.0714C15.4297 24.7558 15.6855 24.5 16.0011 24.5" stroke="#3574F1" stroke-width="2" stroke-linecap="round" stroke-linejoin="round"/>
<path d="M16.002 25.6429C16.3175 25.6429 16.5734 25.3871 16.5734 25.0714C16.5734 24.7558 16.3175 24.5 16.002 24.5" stroke="#3574F1" stroke-width="2" stroke-linecap="round" stroke-linejoin="round"/>
</svg>
