<svg width="10" height="8" viewBox="0 0 10 8" fill="none" xmlns="http://www.w3.org/2000/svg">
<path d="M9.90039 2C9.90039 2 9.80273 1.31055 9.50195 1.00781C9.12109 0.609375 8.69531 0.607422 8.5 0.583984C7.10156 0.482422 5.00195 0.482422 5.00195 0.482422H4.99805C4.99805 0.482422 2.89844 0.482422 1.5 0.583984C1.30469 0.607422 0.878906 0.609375 0.498047 1.00781C0.197266 1.31055 0.101562 2 0.101562 2C0.101562 2 0 2.81055 0 3.61914V4.37695C0 5.18555 0.0996094 5.99609 0.0996094 5.99609C0.0996094 5.99609 0.197266 6.68555 0.496094 6.98828C0.876953 7.38672 1.37695 7.37305 1.59961 7.41602C2.40039 7.49219 5 7.51563 5 7.51563C5 7.51563 7.10156 7.51172 8.5 7.41211C8.69531 7.38867 9.12109 7.38672 9.50195 6.98828C9.80273 6.68555 9.90039 5.99609 9.90039 5.99609C9.90039 5.99609 10 5.1875 10 4.37695V3.61914C10 2.81055 9.90039 2 9.90039 2ZM3.9668 5.29688V2.48633L6.66797 3.89648L3.9668 5.29688Z" fill="#667085"/>
</svg>
