<svg width="541" height="82" viewBox="0 0 541 82" fill="none" xmlns="http://www.w3.org/2000/svg">
<g clip-path="url(#clip0_3342_2781)">
<path d="M53.05 17.5201H66.56V80.0801H53.05V71.0701C47.92 78.2001 40.66 81.7101 31.15 81.7101C22.52 81.7101 15.26 78.5801 9.13 72.2001C3 65.8201 0 57.9301 0 48.8001C0 39.6701 3 31.7801 9.13 25.4001C15.26 19.0201 22.52 15.8901 31.15 15.8901C40.66 15.8901 47.92 19.3901 53.05 26.4001V17.5201ZM33.28 68.8201C38.91 68.8201 43.67 66.9401 47.42 63.1901C51.17 59.3101 53.05 54.5601 53.05 48.8001C53.05 43.0401 51.17 38.2901 47.42 34.5401C43.67 30.6601 38.91 28.7901 33.28 28.7901C27.65 28.7901 22.89 30.6701 19.14 34.5401C15.39 38.2901 13.51 43.0501 13.51 48.8001C13.51 54.5501 15.39 59.3101 19.14 63.1901C22.89 66.9401 27.65 68.8201 33.28 68.8201Z" fill="black"/>
<path d="M124.5 17.52H138.01V80.08H124.5V72.07C120.37 78.45 113.99 81.7 105.11 81.7C90.7198 81.7 81.0898 71.94 81.0898 55.92V17.52H94.5998V54.56C94.5998 63.94 99.9798 69.07 108.61 69.07C118.12 69.07 124.5 63.19 124.5 51.05V17.52Z" fill="black"/>
<path d="M188.681 30.53H173.171V60.56C173.171 68.57 178.421 68.44 188.681 67.94V80.08C168.031 82.58 159.651 76.95 159.651 60.56V30.53H148.141V17.52H159.651V4L173.161 0V17.52H188.671V30.53H188.681Z" fill="black"/>
<path d="M213.34 69.4298C207.71 63.7998 204.84 56.9598 204.84 48.7898C204.84 40.6198 207.71 33.7798 213.34 28.1498C218.97 22.5198 225.92 19.7598 233.98 19.7598C242.04 19.7598 248.99 22.5198 254.62 28.1498C260.25 33.7798 263.12 40.6198 263.12 48.7898C263.12 56.9598 260.25 63.7998 254.62 69.4298C248.99 75.0598 242.15 77.8198 233.98 77.8198C225.81 77.8198 218.97 75.0598 213.34 69.4298ZM233.98 66.2298C238.84 66.2298 242.92 64.5798 246.23 61.2598C249.54 57.9498 251.2 53.7598 251.2 48.7898C251.2 43.8198 249.54 39.6298 246.23 36.3198C242.92 33.0098 238.84 31.3498 233.98 31.3498C229.12 31.3498 225.04 33.0098 221.73 36.3198C218.42 39.6298 216.76 43.8198 216.76 48.7898C216.76 53.7598 218.42 57.9498 221.73 61.2598C225.04 64.5698 229.12 66.2298 233.98 66.2298Z" fill="black"/>
<path d="M305.911 42.9201C315.541 45.0501 328.061 49.0501 327.811 62.4401C327.811 68.4501 325.431 73.2001 320.801 76.5801C316.171 79.9601 310.421 81.7101 303.411 81.7101C291.021 81.7101 281.891 76.2001 277.891 67.0701L289.531 60.3101C291.661 66.3201 296.291 69.3201 303.421 69.3201C310.551 69.3201 314.061 66.9401 314.061 62.3101C314.061 58.3101 308.801 55.9301 302.171 54.3001C292.791 51.9201 280.151 48.1701 280.401 35.0301C280.401 29.2701 282.531 24.6501 286.911 21.1401C291.291 17.6401 296.791 15.8901 303.301 15.8901C313.681 15.8901 322.071 20.7701 326.451 28.9001L315.061 35.2801C312.931 30.5301 308.931 28.1501 303.301 28.1501C298.171 28.1501 294.171 30.4001 294.171 34.7801C294.171 38.9101 299.421 41.0401 305.931 42.9101L305.911 42.9201Z" fill="black"/>
<path d="M343.95 72.2001C337.69 65.8201 334.57 58.0601 334.57 48.8001C334.57 39.5401 337.7 31.6601 343.95 25.4001C350.33 19.0201 358.21 15.8901 367.6 15.8901C379.74 15.8901 390.5 22.1501 395.5 32.0301L383.86 38.7901C380.98 32.7801 374.98 29.1601 367.47 29.1601C361.96 29.1601 357.33 31.0401 353.58 34.7901C349.95 38.5401 348.07 43.1701 348.07 48.8001C348.07 54.4301 349.95 59.0601 353.58 62.8101C357.33 66.5601 361.96 68.4401 367.47 68.4401C374.85 68.4401 381.11 64.6901 384.11 58.8101L395.75 65.4401C390.37 75.4501 379.73 81.7101 367.6 81.7101C358.22 81.7101 350.33 78.5801 343.95 72.2001Z" fill="black"/>
<path d="M454.06 17.5201H467.57V80.0801H454.06V71.0701C448.93 78.2001 441.67 81.7101 432.16 81.7101C423.53 81.7101 416.27 78.5801 410.14 72.2001C404.01 65.8201 401.01 57.9401 401.01 48.8001C401.01 39.6601 404.01 31.7801 410.14 25.4001C416.27 19.0201 423.53 15.8901 432.16 15.8901C441.67 15.8901 448.93 19.3901 454.06 26.4001V17.5201ZM434.29 68.8201C439.92 68.8201 444.68 66.9401 448.43 63.1901C452.18 59.3101 454.06 54.5601 454.06 48.8001C454.06 43.0401 452.18 38.2901 448.43 34.5401C444.68 30.6601 439.92 28.7901 434.29 28.7901C428.66 28.7901 423.91 30.6701 420.15 34.5401C416.4 38.2901 414.52 43.0501 414.52 48.8001C414.52 54.5501 416.4 59.3101 420.15 63.1901C423.9 66.9401 428.66 68.8201 434.29 68.8201Z" fill="black"/>
<path d="M540.27 41.6699V80.0799H526.76V43.0399C526.76 33.6599 521.38 28.5299 512.75 28.5299C503.24 28.5299 496.86 34.4099 496.86 46.5499V80.0799H483.35V17.5199H496.86V25.5299C500.99 19.1499 507.37 15.8999 516.25 15.8999C530.64 15.8999 540.27 25.6599 540.27 41.6799V41.6699Z" fill="black"/>
<path d="M204.869 25.4701V20.3501H210.209" stroke="black" stroke-width="5" stroke-miterlimit="10"/>
<path d="M263.078 25.4701V20.3501H257.729" stroke="black" stroke-width="5" stroke-miterlimit="10"/>
<path d="M263.078 72.1201V77.2501H257.729" stroke="black" stroke-width="5" stroke-miterlimit="10"/>
<path d="M204.869 72.1201V77.2501H210.209" stroke="black" stroke-width="5" stroke-miterlimit="10"/>
<path d="M218.369 48.6C218.369 39.99 225.379 32.98 233.989 32.98C242.599 32.98 249.609 39.99 249.609 48.6C249.609 57.21 242.599 64.22 233.989 64.22C225.379 64.22 218.369 57.21 218.369 48.6Z" fill="black"/>
<path d="M251.189 47.84C251.189 47.84 242.309 43.24 233.449 49.36C233.449 49.36 244.709 45.54 251.009 51.01L251.189 47.83V47.84Z" fill="white"/>
<path d="M248.498 39.3501C248.498 39.3501 238.508 39.8101 233.898 49.5401C233.898 49.5401 241.738 40.6001 249.928 42.1901L248.498 39.3501Z" fill="white"/>
<path d="M241.929 33.3301C241.929 33.3301 233.509 38.7201 234.379 49.4601C234.379 49.4601 236.699 37.7901 244.589 35.0801L241.929 33.3301Z" fill="white"/>
<path d="M233.229 31.4102C233.229 31.4102 228.629 40.2902 234.749 49.1502C234.749 49.1502 230.929 37.8902 236.399 31.5902L233.219 31.4102H233.229Z" fill="white"/>
<path d="M224.729 34.0902C224.729 34.0902 225.189 44.0802 234.919 48.6902C234.919 48.6902 225.979 40.8502 227.569 32.6602L224.729 34.0902Z" fill="white"/>
<path d="M218.719 40.66C218.719 40.66 224.109 49.08 234.849 48.21C234.849 48.21 223.179 45.89 220.469 38L218.719 40.66Z" fill="white"/>
<path d="M216.789 49.3599C216.789 49.3599 225.669 53.9599 234.529 47.8399C234.529 47.8399 223.269 51.6599 216.969 46.1899L216.789 49.3699V49.3599Z" fill="white"/>
<path d="M219.479 57.8599C219.479 57.8599 229.469 57.3999 234.079 47.6699C234.079 47.6699 226.239 56.6099 218.049 55.0199L219.479 57.8599Z" fill="white"/>
<path d="M226.049 63.88C226.049 63.88 234.469 58.49 233.599 47.75C233.599 47.75 231.279 59.42 223.389 62.13L226.049 63.88Z" fill="white"/>
<path d="M234.748 65.8001C234.748 65.8001 239.348 56.9201 233.228 48.0601C233.228 48.0601 237.048 59.3201 231.578 65.6201L234.758 65.8001H234.748Z" fill="white"/>
<path d="M243.249 63.12C243.249 63.12 242.789 53.13 233.059 48.52C233.059 48.52 241.999 56.36 240.409 64.55L243.249 63.12Z" fill="white"/>
<path d="M249.259 56.5403C249.259 56.5403 243.869 48.1203 233.129 48.9903C233.129 48.9903 244.799 51.3103 247.509 59.2003L249.259 56.5403Z" fill="white"/>
<path d="M233.99 55.0704C230.42 55.0704 227.52 52.1704 227.52 48.6004C227.52 45.0304 230.42 42.1304 233.99 42.1304C237.56 42.1304 240.46 45.0304 240.46 48.6004C240.46 52.1704 237.56 55.0704 233.99 55.0704Z" fill="black"/>
<path d="M238.63 48.6C238.63 46.04 236.55 43.96 233.99 43.96C231.43 43.96 229.35 46.04 229.35 48.6C229.35 51.16 231.43 53.24 233.99 53.24C236.55 53.24 238.63 51.16 238.63 48.6ZM233.99 51.67C232.3 51.67 230.93 50.3 230.93 48.6C230.93 46.9 232.3 45.54 233.99 45.54C235.68 45.54 237.05 46.91 237.05 48.6C237.05 50.29 235.68 51.67 233.99 51.67Z" fill="white"/>
</g>
<defs>
<clipPath id="clip0_3342_2781">
<rect width="540.27" height="81.71" fill="white"/>
</clipPath>
</defs>
</svg>
